<?xml version="1.0" encoding="iso-8859-1"?>
<!-- Uploaded to: SVG Repo, www.svgrepo.com, Generator: SVG Repo Mixer Tools -->
<!DOCTYPE svg PUBLIC "-//W3C//DTD SVG 1.1//EN" "http://www.w3.org/Graphics/SVG/1.1/DTD/svg11.dtd">
<svg fill="#000000" height="800px" width="800px" version="1.1" id="Capa_1" xmlns="http://www.w3.org/2000/svg" xmlns:xlink="http://www.w3.org/1999/xlink" 
	 viewBox="0 0 333.141 333.141" xml:space="preserve">
<path d="M289.581,319.267c-35.583-84.682-13.943-237.851-13.72-239.389c0.416-2.872-0.436-5.784-2.335-7.979
	c-1.899-2.194-4.659-3.456-7.561-3.456h-41.772v34.488c0,5.523-4.477,10-10,10c-0.678,0-1.339-0.069-1.979-0.198V45.641
	C212.213,20.474,191.736,0,166.568,0c-25.167,0-45.641,20.474-45.641,45.641v67.093c-0.64,0.128-1.301,0.198-1.979,0.198
	c-5.522,0-10-4.477-10-10V68.443H67.174c-2.902,0-5.662,1.262-7.562,3.456c-1.899,2.195-2.751,5.107-2.335,7.979
	C57.5,81.415,79.141,234.585,43.56,319.267c-1.297,3.087-0.962,6.619,0.891,9.408c1.854,2.789,4.98,4.465,8.329,4.465h227.582
	c3.349,0,6.476-1.676,8.329-4.465C290.543,325.886,290.878,322.354,289.581,319.267z M166.568,20
	c14.141,0,25.645,11.502,25.645,25.641v22.802h-51.285V45.641C140.928,31.502,152.43,20,166.568,20z"/>
</svg>