<?xml version="1.0" encoding="iso-8859-1"?>
<!-- Uploaded to: SVG Repo, www.svgrepo.com, Generator: SVG Repo Mixer Tools -->
<svg fill="#000000" height="800px" width="800px" version="1.1" id="Layer_1" xmlns="http://www.w3.org/2000/svg" xmlns:xlink="http://www.w3.org/1999/xlink" 
	 viewBox="0 0 512.004 512.004" xml:space="preserve">
<g>
	<g>
		<circle cx="153.598" cy="448.004" r="12.8"/>
	</g>
</g>
<g>
	<g>
		<circle cx="409.598" cy="448.004" r="12.8"/>
	</g>
</g>
<g>
	<g>
		<path d="M499.198,435.204h-26.889c-5.931-29.21-31.744-51.2-62.711-51.2c-30.959,0-56.781,21.99-62.711,51.2H216.275
			c-5.726-28.015-29.824-49.229-59.179-50.85l-42.035-283.827c-0.401-2.722-1.673-5.222-3.61-7.177l-89.6-89.6
			C16.851-1.25,8.753-1.25,3.752,3.75c-5,5-5,13.099,0,18.099l86.613,86.596l41.421,279.62
			c-24.559,8.951-42.189,32.29-42.189,59.938c0,35.345,28.655,64,64,64c30.959,0,56.781-21.99,62.711-51.2h130.577
			c5.931,29.21,31.753,51.2,62.711,51.2s56.781-21.99,62.711-51.2h26.889c7.074,0,12.8-5.726,12.8-12.8
			C511.998,440.93,506.272,435.204,499.198,435.204z M153.598,486.404c-21.171,0-38.4-17.229-38.4-38.4
			c0-21.171,17.229-38.4,38.4-38.4c21.171,0,38.4,17.229,38.4,38.4C191.998,469.175,174.769,486.404,153.598,486.404z
			 M409.598,486.404c-21.171,0-38.4-17.229-38.4-38.4c0-21.171,17.229-38.4,38.4-38.4s38.4,17.229,38.4,38.4
			C447.998,469.175,430.769,486.404,409.598,486.404z"/>
	</g>
</g>
<g>
	<g>
		<path d="M506.835,138.193c-4.838-6.417-12.407-10.189-20.437-10.189v-102.4h-128v-25.6h-128v76.8h-51.2v51.2h-7.68
			c-7.424,0-14.473,3.217-19.337,8.823s-7.057,13.047-5.999,20.395l25.6,179.2c1.792,12.612,12.595,21.982,25.335,21.982h238.08
			c11.426,0,21.478-7.578,24.619-18.569l51.2-179.2C513.227,152.913,511.673,144.602,506.835,138.193z M358.398,51.204h102.4v76.8
			h-102.4V51.204z M255.998,25.604h76.8v102.4h-25.6v-51.2h-51.2V25.604z M204.798,102.404h76.8v25.6h-76.8V102.404z
			 M435.198,332.804h-238.08l-25.6-179.2h314.88L435.198,332.804z"/>
	</g>
</g>
</svg>