<!DOCTYPE svg PUBLIC "-//W3C//DTD SVG 1.1//EN" "http://www.w3.org/Graphics/SVG/1.1/DTD/svg11.dtd">
<!-- Uploaded to: SVG Repo, www.svgrepo.com, Transformed by: SVG Repo Mixer Tools -->
<svg fill="#8524c6" height="800px" width="800px" version="1.1" id="Layer_1" xmlns="http://www.w3.org/2000/svg" xmlns:xlink="http://www.w3.org/1999/xlink" viewBox="0 0 512.001 512.001" xml:space="preserve">
<g id="SVGRepo_bgCarrier" stroke-width="0"/>
<g id="SVGRepo_tracerCarrier" stroke-linecap="round" stroke-linejoin="round"/>
<g id="SVGRepo_iconCarrier"> <g> <g> <path d="M147.213,370.714c-6.938-6.34-17.801-10.914-33.22-14.037c-11.759-2.372-16.239-5.077-17.86-6.477 c-1.263-1.075-2.714-2.876-2.714-7.228c0-3.004,0.99-4.872,3.379-6.426c3.174-2.022,7.996-3.072,14.328-3.072 c5.564,0,9.66,0.947,12.16,2.85c2.287,1.724,3.874,4.924,4.591,9.148c0.623,5,3.277,7.876,5.385,9.378 c2.492,1.826,5.163,2.628,8.934,2.628l0.836-0.026c3.729-0.546,6.997-2.551,8.713-5.248c1.587-2.125,3.311-5.777,2.475-11.025 c-1.459-8.977-5.111-16.375-10.871-21.999c-7.603-7.322-18.253-11.051-31.65-11.051c-13.039,0-23.689,2.876-31.65,8.602 c-8.499,6.323-12.988,15.497-12.988,26.547c0,11.247,4.429,20.625,12.834,27.076c6.315,4.702,15.753,8.499,28.877,11.597 c13.961,3.149,18.85,6.349,20.523,7.979c1.647,1.604,2.56,4.975,2.56,9.498c0,2.321-0.674,5.103-5.641,7.927 c-4.147,2.423-8.815,3.601-14.234,3.601c-7.202,0-12.484-1.271-15.71-3.772c-3.234-2.423-4.975-6.528-5.504-12.954 c-0.435-3.729-1.971-6.827-4.574-9.199c-2.398-2.125-5.504-3.149-9.609-3.149c0,0-0.009,0-0.026,0 c-3.209,0.273-6.076,1.604-8.26,3.797c-2.825,2.799-4.147,6.673-3.661,10.573c1.161,13.628,6.238,23.953,15.078,30.703 c7.859,6.204,18.816,9.353,32.563,9.353c12.297,0,22.758-3.098,31.113-9.225c9.711-6.972,14.839-16.896,14.839-28.646 C158.23,386.74,154.526,377.413,147.213,370.714z"/> </g> </g> <g> <g> <path d="M266.407,418.177l-35.644-97.502c-1.348-3.874-3.541-6.946-6.511-9.148c-5.726-4.275-14.012-4.224-19.814,0.051 c-2.935,2.176-5.086,5.222-6.391,9.003l-35.379,97.152c-1.698,3.874-1.672,7.902,0.034,11.324 c1.604,3.226,4.241,5.521,7.799,6.673l3.686,0.623l0.213,0.026c2.125,0,4.164-0.529,6.05-1.553 c3.089-1.672,5.35-4.275,6.758-7.799l10.172-27.904h34.074l10.163,28.126c1.348,3.379,3.627,5.896,7.296,7.953 c1.698,0.7,3.413,1.075,5.316,1.075c0.051,0,0.085,0,0.137-0.026l4.053-0.674c3.413-1.152,6.101-3.524,7.578-6.75 C267.525,425.524,267.67,421.974,266.407,418.177z M206.588,373.923l7.834-21.402l7.765,21.402H206.588z"/> </g> </g> <g> <g> <path d="M350.767,411.811c-1.672-1.51-4.651-3.311-9.216-3.311l-42.01,0.998v-87.979c0-5.129-2.347-8.303-4.335-10.078 c-4.975-4.429-12.826-4.378-18.065,0.35c-1.749,1.724-3.814,4.821-3.814,9.728v89.847c0,5.871,1.826,10.974,5.41,15.147 c4.139,4.804,9.984,7.322,16.896,7.322h45.935c3.763,0,7.074-1.323,9.566-3.849c2.389-2.347,3.686-5.504,3.686-8.823 C354.821,417.639,353.481,414.49,350.767,411.811z"/> </g> </g> <g> <g> <path d="M446.964,411.811c-1.698-1.51-4.676-3.311-9.207-3.311l-50.526,0.998v-26.496h43.639c3.738,0,7.049-1.323,9.566-3.823 c2.389-2.347,3.686-5.504,3.686-8.849c0-3.524-1.34-6.673-4.062-9.378c-1.741-1.502-4.736-3.302-9.19-3.302h-43.913l-0.7-21.726 h49.647c3.661,0,6.912-1.323,9.421-3.823c2.372-2.398,3.678-5.521,3.678-8.849c0-3.524-1.34-6.673-4.053-9.353 c-2.44-2.176-5.564-3.328-9.054-3.328h-52.565c-6.912,0-12.774,2.526-16.964,7.347c-3.558,4.198-5.359,9.327-5.359,15.249v78.199 c0,5.854,1.809,10.948,5.427,15.147c4.122,4.804,9.975,7.322,16.896,7.322h54.434c3.746,0,7.066-1.323,9.566-3.849 c2.389-2.347,3.686-5.504,3.686-8.823C451.017,417.639,449.677,414.516,446.964,411.811z"/> </g> </g> <g> <g> <path d="M511.937,484.574l-25.609-358.4c-0.956-13.397-12.1-23.774-25.532-23.774h-102.4c0-56.559-45.841-102.4-102.4-102.4 c-56.559,0-102.4,45.841-102.4,102.4h-102.4c-13.431,0-24.576,10.377-25.532,23.774l-25.6,358.4 c-0.503,7.091,1.954,14.071,6.801,19.268C11.704,509.048,18.488,512,25.596,512h460.8c7.108,0,13.892-2.953,18.739-8.158 C509.974,498.646,512.44,491.666,511.937,484.574z M345.596,179.201c7.057,0,12.8,5.743,12.8,12.8s-5.743,12.8-12.8,12.8 s-12.8-5.743-12.8-12.8S338.539,179.201,345.596,179.201z M255.996,25.6c42.351,0,76.8,34.449,76.8,76.8h-153.6 C179.196,60.05,213.645,25.6,255.996,25.6z M166.396,179.201c7.057,0,12.8,5.743,12.8,12.8s-5.743,12.8-12.8,12.8 s-12.8-5.743-12.8-12.8S159.339,179.201,166.396,179.201z M25.596,486.401l25.6-358.4h102.4v27.947 c-14.882,5.291-25.6,19.354-25.6,36.053c0,21.205,17.195,38.4,38.4,38.4c21.205,0,38.4-17.195,38.4-38.4 c0-16.691-10.718-30.763-25.6-36.053v-27.947h153.6v27.947c-14.882,5.291-25.6,19.354-25.6,36.053c0,21.205,17.195,38.4,38.4,38.4 c21.205,0,38.4-17.195,38.4-38.4c0-16.691-10.718-30.763-25.6-36.053v-27.947h102.4l25.6,358.4H25.596z"/> </g> </g> </g>
</svg>